<?xml version="1.0" encoding="utf-8"?>
<!-- Generator: Adobe Illustrator 18.0.0, SVG Export Plug-In . SVG Version: 6.00 Build 0)  -->
<!DOCTYPE svg PUBLIC "-//W3C//DTD SVG 1.1//EN" "http://www.w3.org/Graphics/SVG/1.1/DTD/svg11.dtd">
<svg version="1.1" id="レイヤー_1" xmlns="http://www.w3.org/2000/svg" xmlns:xlink="http://www.w3.org/1999/xlink" x="0px"
	 y="0px" viewBox="0 0 50 50" enable-background="new 0 0 50 50" xml:space="preserve">
<path fill="#179EA7" d="M48.3,22.8c-0.1,0.6-0.1,1.2-0.2,1.8c-0.3,2.3-1.1,4.5-2.2,6.5c-2.6,4.5-6.5,7.6-11.3,9.6
	c-2.1,0.9-4.3,1.4-6.5,1.7c-2.4,0.3-4.8,0.3-7.2-0.1c-0.2,0-0.5,0-0.8,0.2c-3.2,1.9-6.4,3.8-9.5,5.8c-0.1,0.1-0.2,0.1-0.4,0.2
	c0-0.2,0-0.3,0-0.4c0-3.2,0-6.3,0-9.5c0-0.3-0.1-0.5-0.3-0.6c-4.3-3.1-7.1-7.2-8.2-12.4c-0.1-0.7-0.2-1.4-0.3-2.1
	c0-0.1,0-0.2-0.1-0.4c0-0.7,0-1.4,0-2.1c0.1-0.6,0.1-1.2,0.2-1.8c0.6-3.5,2.1-6.7,4.5-9.4c2.5-2.9,5.5-4.9,9-6.3
	c2.1-0.8,4.3-1.4,6.5-1.6c0.7-0.1,1.3-0.1,2-0.2c0.8,0,1.6,0,2.5,0c0.4,0,0.8,0.1,1.2,0.1c2.5,0.2,4.9,0.8,7.2,1.7
	c4.9,2,8.8,5.1,11.4,9.6c1.3,2.3,2.1,4.7,2.3,7.3c0,0.5,0.1,0.9,0.1,1.4C48.3,22,48.3,22.4,48.3,22.8z M12.9,43.2
	c0.2-0.1,0.3-0.1,0.4-0.2c2.1-1.2,4.2-2.5,6.2-3.7c0.2-0.1,0.4-0.2,0.6-0.1c2.2,0.5,4.5,0.6,6.7,0.4c2.3-0.2,4.5-0.7,6.6-1.6
	c3.4-1.4,6.3-3.4,8.5-6.4c2.8-3.6,3.9-7.7,3.1-12.2c-0.6-3.4-2.2-6.3-4.6-8.7c-4.1-4.2-9.2-6.1-15-6.3c-1.8-0.1-3.6,0.1-5.3,0.4
	c-4.7,0.9-8.7,3-11.9,6.6c-2.4,2.7-3.9,5.9-4.1,9.6c-0.1,2.2,0.2,4.4,1,6.5c1.5,3.8,4.1,6.6,7.4,8.7c0.2,0.1,0.3,0.3,0.3,0.5
	c0,1.5,0,3.1-0.1,4.6C12.9,42,12.9,42.6,12.9,43.2z"/>
<path fill="#179EA7" d="M25.5,38.1c-5.6-0.1-10-1.3-14-4.1c-0.3-0.2-0.5-0.4-0.4-0.8c0.1-1.4,0.3-2.7,0.7-4.1c0.3-0.8,0.6-1.7,1-2.4
	c1-1.7,2.5-2.7,4.5-2.9c0.6,0,1,0.2,1.4,0.5c1.1,0.8,2.2,1.4,3.5,1.8c0.4,0.1,0.9,0.1,1.4,0.3c0.8,0.2,1.7,0.1,2.5,0
	c0.8-0.1,1.5-0.4,2.3-0.7c0.8-0.3,1.5-0.7,2.1-1.2c1-0.8,2-0.8,3.1-0.4c1.6,0.5,2.6,1.6,3.4,3c0.5,1,0.9,2.1,1.1,3.2
	c0.2,1,0.3,2,0.4,3.1c0,0.3-0.1,0.4-0.3,0.6c-2.6,1.9-5.6,3.1-8.8,3.7C27.9,37.9,26.3,38,25.5,38.1z"/>
<path fill="#179EA7" d="M24.8,10c4.1-0.1,7.5,3.4,7.5,7.5c0,4.2-3.4,7.5-7.5,7.5c-4.1,0-7.4-3.3-7.5-7.5C17.2,13.3,20.7,9.8,24.8,10
	z"/>
</svg>
