<?xml version="1.0" encoding="utf-8"?>
<!-- Generator: Adobe Illustrator 18.0.0, SVG Export Plug-In . SVG Version: 6.00 Build 0)  -->
<!DOCTYPE svg PUBLIC "-//W3C//DTD SVG 1.1//EN" "http://www.w3.org/Graphics/SVG/1.1/DTD/svg11.dtd">
<svg version="1.1" id="レイヤー_1" xmlns="http://www.w3.org/2000/svg" xmlns:xlink="http://www.w3.org/1999/xlink" x="0px"
	 y="0px" viewBox="0 0 188.3 30" enable-background="new 0 0 188.3 30" xml:space="preserve">
<g>
	<path fill="#FFFFFF" d="M7.1,19.1c-0.8,0-1.5-0.7-1.5-1.5V8.9h0.3C7.1,8.9,8,7.9,8,6.8V3.1C8,1.9,7.1,1,5.9,1H2.1
		C0.9,1,0,1.9,0,3.1v3.7c0,1.2,0.9,2.1,2.1,2.1h0.4v8.7c0,2.6,2,4.6,4.6,4.6H10v-3.1H7.1z M2.5,3.5h3v2.9h-3V3.5z"/>
	<path fill="#FFFFFF" d="M13.1,24V5.6c0-0.8,0.7-1.5,1.5-1.5h23V1h-23C12.1,1,10,3,10,5.6v13.5v3.1V24c0,2.6,2,4.6,4.6,4.6h23v-3.1
		h-23C13.8,25.5,13.1,24.8,13.1,24z"/>
	<path fill="#FFFFFF" d="M58.7,5.9h-1.4H51h-5.3C43.1,5.9,41,8,41,10.6v1.1c-2.1,1.2-4.2,2.4-6.3,3.7V19c2.2,1.2,4.2,2.5,6.3,3.7V24
		c0,2.6,2.1,4.7,4.6,4.7h5.7h6.3h1c2.6,0,4.6-2.1,4.6-4.7V10.6C63.3,8,61.3,5.9,58.7,5.9z M60.2,24c0,0.8-0.7,1.5-1.5,1.5h-6.5h-6.3
		h-0.2c-0.6,0-1.1-0.4-1.4-0.9c-0.1-0.2-0.1-0.4-0.1-0.6v-3.1L41,19.1l-3.3-1.9l3.3-1.9l3.2-1.8v-2.9c0-0.3,0.1-0.7,0.4-0.9
		c0.2-0.3,0.5-0.5,0.9-0.5c0.1,0,0.2,0,0.2,0h6.1h6.9c0.8,0,1.5,0.7,1.5,1.5V24z"/>
	<circle fill="#FFFFFF" cx="20.6" cy="11.6" r="2.4"/>
	<circle fill="#FFFFFF" cx="30.2" cy="11.6" r="2.4"/>
</g>
<g>
	<g>
		<path fill="#FFFFFF" d="M82.2,8.8v2.7c0,1.2-1,2.2-2.2,2.2h-9.9V1.6h9.4c1.2,0,2.2,1,2.2,2.2v2.5c0,0.3-0.1,0.7-0.2,0.9
			C82,7.6,82.2,8.2,82.2,8.8z M72.4,3.4c-0.2,0-0.4,0.2-0.4,0.4v2.5c0,0.2,0.2,0.4,0.4,0.4h7.2c0.2,0,0.4-0.2,0.4-0.4V3.8
			c0-0.2-0.2-0.4-0.4-0.4H72.4z M80.4,8.8c0-0.2-0.2-0.4-0.4-0.4h-7.7c-0.2,0-0.4,0.2-0.4,0.4v2.7c0,0.2,0.2,0.4,0.4,0.4h7.7
			c0.2,0,0.4-0.2,0.4-0.4V8.8z"/>
		<path fill="#FFFFFF" d="M91.7,4c1.2,0,2.2,1,2.2,2.2v5.4c0,1.2-1,2.2-2.2,2.2h-5.5c-1.2,0-2.2-1-2.2-2.2V6.1C84,4.9,85,4,86.2,4
			H91.7z M86.2,5.8c-0.2,0-0.4,0.2-0.4,0.4v5.4c0,0.2,0.2,0.4,0.4,0.4h5.5c0.2,0,0.4-0.2,0.4-0.4V6.1c0-0.2-0.2-0.4-0.4-0.4H86.2z"
			/>
		<path fill="#FFFFFF" d="M97.4,5.8v5.7c0,0.2,0.2,0.4,0.4,0.4h3.6v1.8h-3.6c-1.2,0-2.2-1-2.2-2.2V6.1V0.8h1.8V4h4v1.8H97.4z"/>
		<path fill="#FFFFFF" d="M118.9,1.6h2.2v12.1h-1.8V4l-5,6l-5-6v9.6h-1.8V1.6h2.1l4.7,5.6L118.9,1.6z"/>
		<path fill="#FFFFFF" d="M132.8,6.1v7.5h-7.7c-1.2,0-2.2-1-2.2-2.2V7.9h8.1V6.1c0-0.2-0.2-0.4-0.4-0.4h-7.7V4h7.7
			C131.8,4,132.8,4.9,132.8,6.1z M131,9.7h-6.3v1.8c0,0.2,0.2,0.4,0.4,0.4h5.9V9.7z"/>
		<path fill="#FFFFFF" d="M144.4,6.1v7.5h-1.8V6.1c0-0.2-0.2-0.4-0.4-0.4h-5.5c-0.2,0-0.4,0.2-0.4,0.4v7.5h-1.8V4h7.7
			C143.5,4,144.4,4.9,144.4,6.1z"/>
		<path fill="#FFFFFF" d="M156.1,6.1v7.5h-7.7c-1.2,0-2.2-1-2.2-2.2V7.9h8.1V6.1c0-0.2-0.2-0.4-0.4-0.4h-7.7V4h7.7
			C155.1,4,156.1,4.9,156.1,6.1z M154.2,9.7H148v1.8c0,0.2,0.2,0.4,0.4,0.4h5.9V9.7z"/>
		<path fill="#FFFFFF" d="M167.5,10v5.4c0,1.2-1,2.2-2.2,2.2h-6v-1.8h6c0.2,0,0.4-0.2,0.4-0.4v-1.7h-5.9c-1.2,0-2.2-1-2.2-2.2V6.1
			c0-1.2,1-2.2,2.2-2.2h5.5c1.2,0,2.2,1,2.2,2.2V10L167.5,10z M165.3,11.9c0.2,0,0.4-0.2,0.4-0.4V6.1c0-0.2-0.2-0.4-0.4-0.4h-5.5
			c-0.2,0-0.4,0.2-0.4,0.4v5.4c0,0.2,0.2,0.4,0.4,0.4H165.3z"/>
		<path fill="#FFFFFF" d="M179.1,6.1v3.6H171v1.8c0,0.2,0.2,0.4,0.4,0.4h7.7v1.8h-7.7c-1.2,0-2.2-1-2.2-2.2V6.1c0-1.2,1-2.2,2.2-2.2
			h5.5C178.1,4,179.1,4.9,179.1,6.1z M177.3,7.9V6.1c0-0.2-0.2-0.4-0.4-0.4h-5.5c-0.2,0-0.4,0.2-0.4,0.4v1.8H177.3z"/>
		<path fill="#FFFFFF" d="M188.4,4v1.8H183c-0.2,0-0.4,0.2-0.4,0.4v7.5h-1.8v-2.2V6.1c0-1.2,1-2.2,2.2-2.2H188.4z"/>
		<path fill="#FFFFFF" d="M75.8,20.4c1,0,1.8,0.8,1.8,1.8V24h1.1v-4.4c0-0.2-0.1-0.3-0.3-0.3h-6.5c-0.2,0-0.3,0.1-0.3,0.3v6.5
			c0,0.2,0.1,0.3,0.3,0.3h8.4c0,0.7,0,0.8,0,1.5h-8.4c-1,0-1.8-0.8-1.8-1.8v-6.5c0-1,0.8-1.8,1.8-1.8h6.5c1,0,1.8,0.8,1.8,1.8v5.7
			h-5.7c-1,0-1.8-0.8-1.8-1.8v-1.1c0-1,0.8-1.8,1.8-1.8H75.8z M76.4,24v-2c0-0.2-0.1-0.3-0.3-0.3h-1.8c-0.2,0-0.3,0.1-0.3,0.3v1.7
			c0,0.2,0.1,0.3,0.3,0.3H76.4z"/>
		<path fill="#FFFFFF" d="M83.7,19.3c-0.2,0-0.3,0.1-0.3,0.3v6.5c0,0.2,0.1,0.3,0.3,0.3H92V28h-8.3c-1,0-1.8-0.8-1.8-1.8v-6.5
			c0-1,0.8-1.8,1.8-1.8H92v1.5H83.7z"/>
		<path fill="#FFFFFF" d="M101.9,21.6V28h-1.5v-6.4c0-0.2-0.1-0.3-0.3-0.3h-4.7c-0.2,0-0.3,0.1-0.3,0.3V28h-1.5V17H95v2.7h5
			C101,19.7,101.9,20.6,101.9,21.6z"/>
		<path fill="#FFFFFF" d="M111.3,21.6V28h-6.5c-1,0-1.8-0.8-1.8-1.8v-3h6.8v-1.5c0-0.2-0.1-0.3-0.3-0.3h-6.5v-1.5h6.5
			C110.5,19.7,111.3,20.6,111.3,21.6z M109.8,24.6h-5.3v1.5c0,0.2,0.1,0.3,0.3,0.3h5V24.6z"/>
		<path fill="#FFFFFF" d="M114.3,21.3v4.8c0,0.2,0.1,0.3,0.3,0.3h3.1V28h-3.1c-1,0-1.8-0.8-1.8-1.8v-4.5V17h1.5v2.7h3.4v1.5H114.3z"
			/>
		<path fill="#FFFFFF" d="M127,17.7c1,0,1.8,0.8,1.8,1.8v6.5c0,1-0.8,1.8-1.8,1.8h-8.4V17.7H127z M127.4,19.6c0-0.2-0.1-0.3-0.3-0.3
			h-6.5c-0.2,0-0.3,0.1-0.3,0.3v6.5c0,0.2,0.1,0.3,0.3,0.3h6.5c0.2,0,0.3-0.1,0.3-0.3V19.6z"/>
		<path fill="#FFFFFF" d="M136.9,19.7c1,0,1.8,0.8,1.8,1.8v4.5c0,1-0.8,1.8-1.8,1.8h-4.7c-1,0-1.8-0.8-1.8-1.8v-4.5
			c0-1,0.8-1.8,1.8-1.8H136.9z M132.3,21.3c-0.2,0-0.3,0.1-0.3,0.3v4.5c0,0.2,0.1,0.3,0.3,0.3h4.7c0.2,0,0.3-0.1,0.3-0.3v-4.5
			c0-0.2-0.1-0.3-0.3-0.3H132.3z"/>
	</g>
</g>
</svg>
