<?xml version="1.0" encoding="utf-8"?>
<!-- Generator: Adobe Illustrator 18.0.0, SVG Export Plug-In . SVG Version: 6.00 Build 0)  -->
<!DOCTYPE svg PUBLIC "-//W3C//DTD SVG 1.1//EN" "http://www.w3.org/Graphics/SVG/1.1/DTD/svg11.dtd">
<svg version="1.1" id="レイヤー_1" xmlns="http://www.w3.org/2000/svg" xmlns:xlink="http://www.w3.org/1999/xlink" x="0px"
	 y="0px" viewBox="0 0 179.2 30" enable-background="new 0 0 179.2 30" xml:space="preserve">
<g>
	<g>
		<path fill="#FFFFFF" d="M71.7,2.7c-0.2,0-0.4,0.2-0.4,0.4V11c0,0.2,0.2,0.4,0.4,0.4h10.1v1.9H71.7c-1.2,0-2.2-1-2.2-2.2V3.1
			c0-1.2,1-2.2,2.2-2.2h10.1v1.9H71.7z"/>
		<path fill="#FFFFFF" d="M93.8,5.5v7.8h-1.9V5.5c0-0.2-0.2-0.4-0.4-0.4h-5.7c-0.2,0-0.4,0.2-0.4,0.4v7.8h-1.9V0h1.9v3.3h6.1
			C92.8,3.3,93.8,4.3,93.8,5.5z"/>
		<path fill="#FFFFFF" d="M105.3,5.5v7.8h-7.9c-1.2,0-2.2-1-2.2-2.2V7.4h8.3V5.5c0-0.2-0.2-0.4-0.4-0.4h-7.9V3.3h7.9
			C104.3,3.3,105.3,4.3,105.3,5.5z M103.4,9.2H97V11c0,0.2,0.2,0.4,0.4,0.4h6.1V9.2z"/>
		<path fill="#FFFFFF" d="M109,5.1V11c0,0.2,0.2,0.4,0.4,0.4h3.7v1.9h-3.7c-1.2,0-2.2-1-2.2-2.2V5.5V0h1.9v3.3h4.1v1.9H109z"/>
		<path fill="#FFFFFF" d="M126.6,6.6c0,1.2-1,2.2-2.2,2.2h-1.3l3.5,4.2v0.3h-2.2l-3.7-4.4h-4.2c-0.1,0-0.3,0-0.4,0v4.5h-1.9V0.9
			h10.2c1.2,0,2.2,1,2.2,2.2V6.6z M124.4,7c0.2,0,0.4-0.2,0.4-0.4V3.1c0-0.2-0.2-0.4-0.4-0.4h-7.9c-0.2,0-0.4,0.2-0.4,0.4v3.5
			c0,0.2,0.2,0.4,0.4,0.4H124.4z"/>
		<path fill="#FFFFFF" d="M136.3,3.3c1.2,0,2.2,1,2.2,2.2V11c0,1.2-1,2.2-2.2,2.2h-5.7c-1.2,0-2.2-1-2.2-2.2V5.5
			c0-1.2,1-2.2,2.2-2.2H136.3z M130.6,5.1c-0.2,0-0.4,0.2-0.4,0.4V11c0,0.2,0.2,0.4,0.4,0.4h5.7c0.2,0,0.4-0.2,0.4-0.4V5.5
			c0-0.2-0.2-0.4-0.4-0.4H130.6z"/>
		<path fill="#FFFFFF" d="M148.2,3.3c1.2,0,2.2,1,2.2,2.2V11c0,1.2-1,2.2-2.2,2.2h-5.7c-1.2,0-2.2-1-2.2-2.2V5.5
			c0-1.2,1-2.2,2.2-2.2H148.2z M142.6,5.1c-0.2,0-0.4,0.2-0.4,0.4V11c0,0.2,0.2,0.4,0.4,0.4h5.7c0.2,0,0.4-0.2,0.4-0.4V5.5
			c0-0.2-0.2-0.4-0.4-0.4H142.6z"/>
		<path fill="#FFFFFF" d="M167.3,5.5v7.8h-1.8V5.5c0-0.2-0.2-0.4-0.4-0.4h-3.9c-0.2,0-0.4,0.2-0.4,0.4v7.8h-1.9V5.5
			c0-0.2-0.2-0.4-0.4-0.4h-4c-0.2,0-0.4,0.2-0.4,0.4v7.8h-1.9v-10h12.8C166.3,3.3,167.3,4.3,167.3,5.5z"/>
		<path fill="#FFFFFF" d="M179.2,5.9h-1.9V5.5c0-0.2-0.2-0.4-0.4-0.4h-5.7c-0.2,0-0.4,0.2-0.4,0.4V7c0,0.2,0.2,0.4,0.4,0.4h5.7
			c1.2,0,2.2,1,2.2,2.2V11c0,1.2-1,2.2-2.2,2.2h-5.7c-1.2,0-2.2-1-2.2-2.2v-0.4h1.9V11c0,0.2,0.2,0.4,0.4,0.4h5.7
			c0.2,0,0.4-0.2,0.4-0.4V9.6c0-0.2-0.2-0.4-0.4-0.4h-5.7c-1.2,0-2.2-1-2.2-2.2V5.5c0-1.2,1-2.2,2.2-2.2h5.7c1.2,0,2.2,1,2.2,2.2
			V5.9z"/>
		<path fill="#FFFFFF" d="M76.5,20.9c1.2,0,2.2,1,2.2,2.2v2.1H80v-5.4c0-0.2-0.2-0.4-0.4-0.4h-7.9c-0.2,0-0.4,0.2-0.4,0.4v7.9
			c0,0.2,0.2,0.4,0.4,0.4h10.2c0,0.8,0,0.9,0,1.9H71.7c-1.2,0-2.2-1-2.2-2.2v-7.9c0-1.2,1-2.2,2.2-2.2h7.9c1.2,0,2.2,1,2.2,2.2v6.9
			h-7c-1.2,0-2.2-1-2.2-2.2v-1.4c0-1.2,1-2.2,2.2-2.2H76.5z M77.2,25.2v-2.4c0-0.2-0.2-0.4-0.4-0.4h-2.2c-0.2,0-0.4,0.2-0.4,0.4v2.1
			c0,0.2,0.2,0.4,0.4,0.4H77.2z"/>
		<path fill="#FFFFFF" d="M86,19.4c-0.2,0-0.4,0.2-0.4,0.4v7.9c0,0.2,0.2,0.4,0.4,0.4h10.1V30H86c-1.2,0-2.2-1-2.2-2.2v-7.9
			c0-1.2,1-2.2,2.2-2.2h10.1v1.9H86z"/>
		<path fill="#FFFFFF" d="M108.1,22.2V30h-1.9v-7.8c0-0.2-0.2-0.4-0.4-0.4h-5.7c-0.2,0-0.4,0.2-0.4,0.4V30h-1.9V16.7h1.9V20h6.1
			C107.1,20,108.1,21,108.1,22.2z"/>
		<path fill="#FFFFFF" d="M119.6,22.2V30h-7.9c-1.2,0-2.2-1-2.2-2.2v-3.7h8.3v-1.8c0-0.2-0.2-0.4-0.4-0.4h-7.9V20h7.9
			C118.6,20,119.6,21,119.6,22.2z M117.7,25.9h-6.4v1.8c0,0.2,0.2,0.4,0.4,0.4h6.1V25.9z"/>
		<path fill="#FFFFFF" d="M123.3,21.9v5.9c0,0.2,0.2,0.4,0.4,0.4h3.7V30h-3.7c-1.2,0-2.2-1-2.2-2.2v-5.5v-5.5h1.9V20h4.1v1.9H123.3z
			"/>
		<path fill="#FFFFFF" d="M138.8,17.6c1.2,0,2.2,1,2.2,2.2v7.9c0,1.2-1,2.2-2.2,2.2h-10.2V17.6H138.8z M139.1,19.8
			c0-0.2-0.2-0.4-0.4-0.4h-7.9c-0.2,0-0.4,0.2-0.4,0.4v7.9c0,0.2,0.2,0.4,0.4,0.4h7.9c0.2,0,0.4-0.2,0.4-0.4V19.8z"/>
		<path fill="#FFFFFF" d="M150.8,20c1.2,0,2.2,1,2.2,2.2v5.5c0,1.2-1,2.2-2.2,2.2h-5.7c-1.2,0-2.2-1-2.2-2.2v-5.5
			c0-1.2,1-2.2,2.2-2.2H150.8z M145.1,21.9c-0.2,0-0.4,0.2-0.4,0.4v5.5c0,0.2,0.2,0.4,0.4,0.4h5.7c0.2,0,0.4-0.2,0.4-0.4v-5.5
			c0-0.2-0.2-0.4-0.4-0.4H145.1z"/>
	</g>
</g>
<g>
	<g>
		<path fill="#FFFFFF" d="M7.1,19.8c-0.8,0-1.5-0.7-1.5-1.5V9.6h0.3C7.1,9.6,8,8.6,8,7.5V3.8c0-1.2-1-2.1-2.1-2.1H2.1
			C0.9,1.7,0,2.6,0,3.8v3.7c0,1.2,0.9,2.1,2.1,2.1h0.4v8.7c0,2.6,2,4.6,4.6,4.6H10v-3.1H7.1z M2.5,4.2h3v2.9h-3V4.2z"/>
		<path fill="#FFFFFF" d="M13.1,24.7V6.3c0-0.8,0.7-1.5,1.5-1.5h23V1.7h-23c-2.6,0-4.6,2-4.6,4.6v13.5v3.1v1.8c0,2.6,2,4.6,4.6,4.6
			h23v-3.1h-23C13.8,26.2,13.1,25.6,13.1,24.7z"/>
		<path fill="#FFFFFF" d="M58.7,6.6h-1.4H51h-5.3c-2.6,0-4.6,2.1-4.6,4.6v1.1c-2.1,1.2-4.2,2.4-6.3,3.7v3.6c2.2,1.2,4.2,2.5,6.3,3.7
			v1.3c0,2.6,2.1,4.7,4.6,4.7h5.7h6.3h1c2.6,0,4.6-2.1,4.6-4.7V11.3C63.3,8.7,61.3,6.6,58.7,6.6z M60.2,24.7c0,0.8-0.7,1.5-1.5,1.5
			h-6.5h-6.3h-0.2c-0.6,0-1.1-0.4-1.4-0.9c-0.1-0.2-0.1-0.4-0.1-0.6v-3.1L41,19.8l-3.3-1.9L41,16l3.2-1.8v-2.9
			c0-0.3,0.1-0.7,0.4-0.9c0.2-0.3,0.5-0.5,0.9-0.5c0.1,0,0.2,0,0.2,0h6.1h6.9c0.8,0,1.5,0.7,1.5,1.5V24.7z"/>
		<circle fill="#FFFFFF" cx="20.6" cy="12.3" r="2.4"/>
		<circle fill="#FFFFFF" cx="30.2" cy="12.3" r="2.4"/>
	</g>
</g>
</svg>
